# Blender 4.0.2
# www.blender.org
mtllib untitled.mtl
o Cube
v 0.230316 0.230316 -2.246052
v 0.230316 -0.230316 -2.246052
v 0.176767 0.176767 1.279937
v 0.176767 -0.176767 1.279937
v -0.230316 0.230316 -2.246052
v -0.230316 -0.230316 -2.246052
v -0.176767 0.176767 1.279937
v -0.176767 -0.176767 1.279937
v -0.511975 0.176767 0.911616
v -0.511975 -0.176767 0.911616
v 0.511975 0.176767 0.911616
v 0.511975 -0.176767 0.911616
v -0.511975 0.176767 1.088384
v -0.511975 -0.176767 1.088384
v 0.511975 0.176767 1.088384
v 0.511975 -0.176767 1.088384
v -0.234428 -0.234428 -1.300183
v -0.225596 -0.225596 -0.161967
v -0.203813 -0.203813 0.739141
v 0.133106 -0.277598 -2.350659
v 0.000000 -0.297587 -2.350659
v -0.133106 -0.277598 -2.350659
v 0.277598 0.133106 -2.350659
v 0.297587 0.000000 -2.350659
v 0.277598 -0.133106 -2.350659
v -0.202551 -0.104876 1.466636
v -0.215503 -0.000000 1.560417
v -0.202551 0.104876 1.466636
v 0.202551 0.104876 1.466636
v 0.215503 0.000000 1.560417
v 0.202551 -0.104876 1.466636
v -0.277598 0.133106 -2.350659
v -0.297587 0.000000 -2.350659
v -0.277598 -0.133106 -2.350659
v 0.104876 0.202551 1.466636
v -0.000000 0.215503 1.560417
v -0.104876 0.202551 1.466636
v 0.234428 0.234428 -1.300183
v 0.225596 0.225596 -0.161967
v 0.203813 0.203813 0.739141
v -0.104876 -0.202551 1.466636
v -0.000000 -0.215503 1.560417
v 0.104876 -0.202551 1.466636
v -0.203813 0.203813 0.739141
v -0.225596 0.225596 -0.161967
v -0.234428 0.234428 -1.300183
v -0.133106 0.277598 -2.350659
v -0.000000 0.297587 -2.350659
v 0.133106 0.277598 -2.350659
v 0.203813 -0.203813 0.739141
v 0.225596 -0.225596 -0.161967
v 0.234428 -0.234428 -1.300183
v -0.303755 -0.202551 1.101276
v 0.000000 -0.215503 1.107752
v 0.303755 -0.202551 1.101276
v -0.586654 -0.202551 0.947562
v -0.624167 -0.215503 1.000000
v -0.586654 -0.202551 1.052438
v -0.586654 0.104876 0.898724
v -0.624167 0.000000 0.892248
v -0.586654 -0.104876 0.898724
v 0.586654 -0.104876 1.101276
v 0.624167 0.000000 1.107752
v 0.586654 0.104876 1.101276
v 0.586654 0.104876 0.898724
v 0.624167 0.000000 0.892249
v 0.586654 -0.104876 0.898724
v -0.586654 0.104876 1.101276
v -0.624167 0.000000 1.107752
v -0.586654 -0.104876 1.101276
v 0.586654 0.202551 0.947562
v 0.624167 0.215503 1.000000
v 0.586654 0.202551 1.052438
v -0.303755 0.202551 0.898724
v 0.000000 0.215503 0.892249
v 0.303755 0.202551 0.898724
v 0.586654 -0.202551 1.052438
v 0.624167 -0.215503 1.000000
v 0.586654 -0.202551 0.947562
v 0.303755 0.202551 1.101276
v 0.000000 0.215503 1.107752
v -0.303755 0.202551 1.101276
v -0.586654 0.202551 1.052438
v -0.624167 0.215503 1.000000
v -0.586654 0.202551 0.947562
v 0.303755 -0.202551 0.898724
v 0.000000 -0.215503 0.892249
v -0.303755 -0.202551 0.898724
v 0.128198 0.300379 -1.298455
v 0.000000 0.322368 -1.296726
v -0.128198 0.300379 -1.298455
v 0.123335 0.289190 -0.148141
v -0.000000 0.310434 -0.134314
v -0.123335 0.289190 -0.148141
v 0.112467 0.259321 0.790805
v -0.000000 0.278108 0.836008
v -0.112467 0.259321 0.790805
v 0.111772 -0.111772 1.866122
v 0.117777 -0.000000 2.001383
v 0.111772 0.111772 1.866122
v -0.000000 -0.117777 2.001383
v 0.000000 0.000000 2.149030
v 0.000000 0.117777 2.001383
v -0.111772 -0.111772 1.866122
v -0.117777 0.000000 2.001383
v -0.111772 0.111772 1.866122
v -0.259321 -0.112467 0.790805
v -0.278108 -0.000000 0.836008
v -0.259321 0.112467 0.790805
v -0.289190 -0.123335 -0.148141
v -0.310434 -0.000000 -0.134314
v -0.289190 0.123335 -0.148141
v -0.300379 -0.128198 -1.298455
v -0.322368 0.000000 -1.296726
v -0.300379 0.128198 -1.298455
v -0.128198 -0.300379 -1.298455
v 0.000000 -0.322368 -1.296726
v 0.128198 -0.300379 -1.298455
v -0.123335 -0.289190 -0.148141
v 0.000000 -0.310434 -0.134314
v 0.123335 -0.289190 -0.148141
v -0.112467 -0.259321 0.790805
v 0.000000 -0.278108 0.836008
v 0.112467 -0.259321 0.790805
v 0.300379 -0.128198 -1.298455
v 0.322368 0.000000 -1.296726
v 0.300379 0.128198 -1.298455
v 0.289190 -0.123335 -0.148141
v 0.310434 0.000000 -0.134314
v 0.289190 0.123335 -0.148141
v 0.259321 -0.112467 0.790805
v 0.278108 0.000000 0.836008
v 0.259321 0.112467 0.790805
v -0.152216 -0.152216 -2.559874
v -0.162037 0.000000 -2.559874
v -0.152216 0.152216 -2.559874
v -0.000000 -0.162037 -2.559874
v 0.000000 0.000000 -2.559874
v 0.000000 0.162037 -2.559874
v 0.152216 -0.152216 -2.559874
v 0.162037 0.000000 -2.559874
v 0.152216 0.152216 -2.559874
v -0.323729 0.257723 0.944114
v -0.341119 0.276403 1.000000
v -0.323729 0.257723 1.055886
v 0.000000 0.276403 0.941112
v -0.000000 0.296794 1.000000
v -0.000000 0.276403 1.058888
v 0.323729 0.257723 0.944114
v 0.341119 0.276403 1.000000
v 0.323729 0.257723 1.055886
v 0.746449 -0.111772 0.944114
v 0.800553 -0.000000 0.941112
v 0.746449 0.111772 0.944114
v 0.800553 -0.117777 1.000000
v 0.859612 0.000000 1.000000
v 0.800553 0.117777 1.000000
v 0.746449 -0.111772 1.055886
v 0.800553 0.000000 1.058888
v 0.746449 0.111772 1.055886
v 0.323729 -0.111772 1.128862
v 0.341119 -0.000000 1.138202
v 0.323729 0.111772 1.128862
v -0.000000 -0.117777 1.138202
v 0.000000 0.000000 1.148397
v 0.000000 0.117777 1.138202
v -0.323729 -0.111772 1.128862
v -0.341119 0.000000 1.138202
v -0.323729 0.111772 1.128862
v -0.323729 -0.257723 1.055886
v -0.341119 -0.276403 1.000000
v -0.323729 -0.257723 0.944114
v 0.000000 -0.276403 1.058888
v -0.000000 -0.296794 1.000000
v -0.000000 -0.276403 0.941112
v 0.323729 -0.257723 1.055886
v 0.341119 -0.276403 1.000000
v 0.323729 -0.257723 0.944114
v -0.323729 -0.111772 0.871139
v -0.341119 -0.000000 0.861799
v -0.323729 0.111772 0.871139
v 0.000000 -0.117777 0.861798
v -0.000000 0.000000 0.851603
v -0.000000 0.117777 0.861799
v 0.323729 -0.111772 0.871139
v 0.341119 0.000000 0.861799
v 0.323729 0.111772 0.871139
v -0.746449 -0.111772 1.055886
v -0.800553 -0.000000 1.058888
v -0.746449 0.111772 1.055886
v -0.800553 -0.117777 1.000000
v -0.859612 0.000000 1.000000
v -0.800553 0.117777 1.000000
v -0.746449 -0.111772 0.944114
v -0.800553 0.000000 0.941112
v -0.746449 0.111772 0.944114
vn 0.1700 0.9854 0.0102
vn -0.1700 0.9854 0.0102
vn 0.1753 0.9840 0.0331
vn -0.1753 0.9840 0.0331
vn 0.4907 0.8712 -0.0115
vn 0.1584 0.9871 -0.0219
vn -0.1584 0.9871 -0.0219
vn -0.4907 0.8712 -0.0115
vn -0.5283 0.8490 0.0106
vn -0.5318 0.8462 0.0332
vn -0.5283 0.8459 0.0733
vn -0.1966 0.9769 0.0843
vn 0.1966 0.9769 0.0843
vn 0.5283 0.8459 0.0733
vn 0.5318 0.8462 0.0332
vn 0.5283 0.8490 0.0106
vn 0.6173 -0.6173 0.4878
vn 0.6173 0.6173 0.4878
vn -0.6173 -0.6173 0.4878
vn -0.6173 0.6173 0.4878
vn 0.6986 -0.6986 0.1549
vn 0.9314 -0.2998 0.2064
vn 0.9314 0.2998 0.2064
vn 0.6986 0.6986 0.1549
vn 0.2998 0.9314 0.2064
vn -0.2998 0.9314 0.2064
vn -0.6986 0.6986 0.1549
vn -0.9314 0.2998 0.2064
vn -0.9314 -0.2998 0.2064
vn -0.6986 -0.6986 0.1549
vn -0.2998 -0.9314 0.2064
vn 0.2998 -0.9314 0.2064
vn -0.9840 -0.1753 0.0331
vn -0.9840 0.1753 0.0331
vn -0.9854 -0.1700 0.0102
vn -0.9854 0.1700 0.0102
vn -0.8459 -0.5283 0.0733
vn -0.9769 -0.1966 0.0843
vn -0.9769 0.1966 0.0843
vn -0.8459 0.5283 0.0733
vn -0.8462 0.5318 0.0332
vn -0.8490 0.5283 0.0106
vn -0.8712 0.4907 -0.0115
vn -0.9871 0.1584 -0.0219
vn -0.9871 -0.1584 -0.0219
vn -0.8712 -0.4907 -0.0115
vn -0.8490 -0.5283 0.0106
vn -0.8462 -0.5318 0.0332
vn -0.1700 -0.9854 0.0102
vn 0.1700 -0.9854 0.0102
vn -0.1753 -0.9840 0.0331
vn 0.1753 -0.9840 0.0331
vn -0.4907 -0.8712 -0.0115
vn -0.1584 -0.9871 -0.0219
vn 0.1584 -0.9871 -0.0219
vn 0.4907 -0.8712 -0.0115
vn 0.5283 -0.8490 0.0106
vn 0.5318 -0.8462 0.0332
vn 0.5283 -0.8459 0.0733
vn 0.1966 -0.9769 0.0843
vn -0.1966 -0.9769 0.0843
vn -0.5283 -0.8459 0.0733
vn -0.5318 -0.8462 0.0332
vn -0.5283 -0.8490 0.0106
vn 0.9854 -0.1700 0.0102
vn 0.9854 0.1700 0.0102
vn 0.9840 -0.1753 0.0331
vn 0.9840 0.1753 0.0331
vn 0.8712 -0.4907 -0.0115
vn 0.9871 -0.1584 -0.0219
vn 0.9871 0.1584 -0.0219
vn 0.8712 0.4907 -0.0115
vn 0.8490 0.5283 0.0106
vn 0.8462 0.5318 0.0332
vn 0.8459 0.5283 0.0733
vn 0.9769 0.1966 0.0843
vn 0.9769 -0.1966 0.0843
vn 0.8459 -0.5283 0.0733
vn 0.8462 -0.5318 0.0332
vn 0.8490 -0.5283 0.0106
vn -0.0000 -0.0000 -1.0000
vn -0.6670 -0.6670 -0.3320
vn -0.8470 -0.0885 -0.5242
vn -0.8470 0.0885 -0.5242
vn -0.6670 0.6670 -0.3320
vn -0.0885 0.8470 -0.5242
vn 0.0885 0.8470 -0.5242
vn 0.6670 0.6670 -0.3320
vn 0.8470 0.0885 -0.5242
vn 0.8470 -0.0885 -0.5242
vn 0.6670 -0.6670 -0.3320
vn 0.0885 -0.8470 -0.5242
vn -0.0885 -0.8470 -0.5242
vn -0.0569 0.9425 -0.3294
vn -0.0569 0.9425 0.3294
vn 0.0569 0.9425 -0.3294
vn 0.0569 0.9425 0.3294
vn -0.1334 0.6204 -0.7728
vn -0.1958 0.9102 -0.3650
vn -0.1958 0.9102 0.3650
vn -0.1334 0.6204 0.7728
vn -0.0433 0.6253 0.7792
vn 0.0433 0.6253 0.7792
vn 0.1334 0.6204 0.7728
vn 0.1958 0.9102 0.3650
vn 0.1958 0.9102 -0.3650
vn 0.1334 0.6204 -0.7728
vn 0.0433 0.6253 -0.7792
vn -0.0433 0.6253 -0.7792
vn 0.6621 -0.3352 -0.6703
vn 0.6621 0.3352 -0.6703
vn 0.6621 -0.3352 0.6703
vn 0.6621 0.3352 0.6703
vn 0.2406 -0.4341 -0.8681
vn 0.2639 -0.1532 -0.9523
vn 0.2638 0.1532 -0.9523
vn 0.2406 0.4341 -0.8681
vn 0.4224 0.7622 -0.4906
vn 0.4224 0.7622 0.4906
vn 0.2406 0.4341 0.8681
vn 0.2638 0.1532 0.9523
vn 0.2638 -0.1532 0.9523
vn 0.2406 -0.4341 0.8681
vn 0.4224 -0.7622 0.4906
vn 0.4224 -0.7622 -0.4906
vn 0.0300 -0.0870 0.9958
vn 0.0300 0.0870 0.9958
vn -0.0300 -0.0870 0.9958
vn -0.0300 0.0870 0.9958
vn 0.1021 -0.2958 0.9498
vn 0.1064 -0.0992 0.9894
vn 0.1064 0.0992 0.9894
vn 0.1021 0.2958 0.9498
vn 0.0330 0.2973 0.9542
vn -0.0330 0.2973 0.9542
vn -0.1021 0.2958 0.9498
vn -0.1064 0.0992 0.9894
vn -0.1064 -0.0992 0.9894
vn -0.1021 -0.2958 0.9498
vn -0.0330 -0.2973 0.9542
vn 0.0330 -0.2973 0.9542
vn -0.0569 -0.9425 0.3294
vn -0.0569 -0.9425 -0.3294
vn 0.0569 -0.9425 0.3294
vn 0.0569 -0.9425 -0.3294
vn -0.1334 -0.6204 0.7728
vn -0.1958 -0.9102 0.3650
vn -0.1958 -0.9102 -0.3650
vn -0.1334 -0.6204 -0.7728
vn -0.0433 -0.6253 -0.7792
vn 0.0433 -0.6253 -0.7792
vn 0.1334 -0.6205 -0.7728
vn 0.1958 -0.9102 -0.3650
vn 0.1958 -0.9102 0.3650
vn 0.1334 -0.6204 0.7728
vn 0.0433 -0.6253 0.7792
vn -0.0433 -0.6253 0.7792
vn -0.0300 -0.0870 -0.9958
vn -0.0300 0.0870 -0.9958
vn 0.0300 -0.0870 -0.9958
vn 0.0300 0.0870 -0.9958
vn -0.1021 -0.2958 -0.9498
vn -0.1064 -0.0992 -0.9894
vn -0.1064 0.0992 -0.9894
vn -0.1021 0.2958 -0.9498
vn -0.0330 0.2973 -0.9542
vn 0.0330 0.2973 -0.9542
vn 0.1021 0.2958 -0.9498
vn 0.1064 0.0992 -0.9894
vn 0.1064 -0.0992 -0.9894
vn 0.1021 -0.2958 -0.9498
vn 0.0330 -0.2973 -0.9542
vn -0.0330 -0.2973 -0.9542
vn -0.6621 -0.3352 0.6703
vn -0.6621 0.3352 0.6703
vn -0.6621 -0.3352 -0.6703
vn -0.6621 0.3352 -0.6703
vn -0.2406 -0.4341 0.8681
vn -0.2639 -0.1532 0.9523
vn -0.2639 0.1532 0.9523
vn -0.2406 0.4341 0.8681
vn -0.4224 0.7622 0.4906
vn -0.4224 0.7622 -0.4906
vn -0.2406 0.4341 -0.8681
vn -0.2639 0.1532 -0.9523
vn -0.2639 -0.1532 -0.9523
vn -0.2406 -0.4341 -0.8681
vn -0.4224 -0.7622 -0.4906
vn -0.4224 -0.7622 0.4906
vt 0.687500 0.562500
vt 0.750000 0.562500
vt 0.750000 0.625000
vt 0.687500 0.625000
vt 0.812500 0.562500
vt 0.812500 0.625000
vt 0.750000 0.687500
vt 0.687500 0.687500
vt 0.812500 0.687500
vt 0.625000 0.500000
vt 0.687500 0.500000
vt 0.625000 0.562500
vt 0.750000 0.500000
vt 0.812500 0.500000
vt 0.875000 0.500000
vt 0.875000 0.562500
vt 0.875000 0.625000
vt 0.875000 0.687500
vt 0.875000 0.750000
vt 0.812500 0.750000
vt 0.750000 0.750000
vt 0.687500 0.750000
vt 0.625000 0.687500
vt 0.625000 0.750000
vt 0.625000 0.625000
vt 0.437500 0.812500
vt 0.500000 0.812500
vt 0.500000 0.875000
vt 0.437500 0.875000
vt 0.562500 0.812500
vt 0.562500 0.875000
vt 0.500000 0.937500
vt 0.437500 0.937500
vt 0.562500 0.937500
vt 0.375000 0.750000
vt 0.437500 0.750000
vt 0.375000 0.812500
vt 0.500000 0.750000
vt 0.562500 0.750000
vt 0.625000 0.812500
vt 0.625000 0.875000
vt 0.625000 0.937500
vt 0.625000 1.000000
vt 0.562500 1.000000
vt 0.500000 1.000000
vt 0.437500 1.000000
vt 0.375000 0.937500
vt 0.375000 1.000000
vt 0.375000 0.875000
vt 0.437500 0.062500
vt 0.500000 0.062500
vt 0.500000 0.125000
vt 0.437500 0.125000
vt 0.562500 0.062500
vt 0.562500 0.125000
vt 0.500000 0.187500
vt 0.437500 0.187500
vt 0.562500 0.187500
vt 0.375000 0.000000
vt 0.437500 0.000000
vt 0.375000 0.062500
vt 0.500000 0.000000
vt 0.562500 0.000000
vt 0.625000 0.000000
vt 0.625000 0.062500
vt 0.625000 0.125000
vt 0.625000 0.187500
vt 0.625000 0.250000
vt 0.562500 0.250000
vt 0.500000 0.250000
vt 0.437500 0.250000
vt 0.375000 0.187500
vt 0.375000 0.250000
vt 0.375000 0.125000
vt 0.187500 0.562500
vt 0.250000 0.562500
vt 0.250000 0.625000
vt 0.187500 0.625000
vt 0.312500 0.562500
vt 0.312500 0.625000
vt 0.250000 0.687500
vt 0.187500 0.687500
vt 0.312500 0.687500
vt 0.125000 0.500000
vt 0.187500 0.500000
vt 0.125000 0.562500
vt 0.250000 0.500000
vt 0.312500 0.500000
vt 0.375000 0.500000
vt 0.375000 0.562500
vt 0.375000 0.625000
vt 0.375000 0.687500
vt 0.312500 0.750000
vt 0.250000 0.750000
vt 0.187500 0.750000
vt 0.125000 0.687500
vt 0.125000 0.750000
vt 0.125000 0.625000
vt 0.437500 0.562500
vt 0.500000 0.562500
vt 0.500000 0.625000
vt 0.437500 0.625000
vt 0.562500 0.562500
vt 0.562500 0.625000
vt 0.500000 0.687500
vt 0.437500 0.687500
vt 0.562500 0.687500
vt 0.437500 0.500000
vt 0.500000 0.500000
vt 0.562500 0.500000
vt 0.437500 0.312500
vt 0.500000 0.312500
vt 0.500000 0.375000
vt 0.437500 0.375000
vt 0.562500 0.312500
vt 0.562500 0.375000
vt 0.500000 0.437500
vt 0.437500 0.437500
vt 0.562500 0.437500
vt 0.375000 0.312500
vt 0.625000 0.312500
vt 0.625000 0.375000
vt 0.625000 0.437500
vt 0.375000 0.437500
vt 0.375000 0.375000
vt 0.750000 0.500000
vt 0.500000 0.187500
vt 0.437500 0.187500
vt 0.500000 0.250000
vt 0.437500 0.250000
vt 0.187500 0.500000
vt 0.437500 0.500000
vt 0.500000 0.500000
vt 0.562500 0.500000
vt 0.562500 0.312500
vt 0.562500 0.375000
vt 0.437500 0.437500
vt 0.375000 0.312500
vt 0.625000 0.312500
vt 0.625000 0.375000
vt 0.375000 0.375000
s 0
usemtl Material
f 89/1/1 90/2/1 93/3/1 92/4/1
f 90/2/2 91/5/2 94/6/2 93/3/2
f 92/4/3 93/3/3 96/7/3 95/8/3
f 93/3/4 94/6/4 97/9/4 96/7/4
f 1/10/5 49/11/5 89/1/5 38/12/5
f 49/11/6 48/13/6 90/2/6 89/1/6
f 48/13/7 47/14/7 91/5/7 90/2/7
f 47/14/8 5/15/8 46/16/8 91/5/8
f 91/5/9 46/16/9 45/17/9 94/6/9
f 94/6/10 45/17/10 44/18/10 97/9/10
f 97/9/11 44/18/11 7/19/11 37/20/11
f 96/7/12 97/9/12 37/20/12 36/21/12
f 95/8/13 96/7/13 36/21/13 35/22/13
f 40/23/14 95/8/14 35/22/14 3/24/14
f 39/25/15 92/4/15 95/8/15 40/23/15
f 38/12/16 89/1/16 92/4/16 39/25/16
f 98/26/17 99/27/17 102/28/17 101/29/17
f 99/27/18 100/30/18 103/31/18 102/28/18
f 101/29/19 102/28/19 105/32/19 104/33/19
f 102/28/20 103/31/20 106/34/20 105/32/20
f 4/35/21 31/36/21 98/26/21 43/37/21
f 31/36/22 30/38/22 99/27/22 98/26/22
f 30/38/23 29/39/23 100/30/23 99/27/23
f 29/39/24 3/24/24 35/40/24 100/30/24
f 100/30/25 35/40/25 36/41/25 103/31/25
f 103/31/26 36/41/26 37/42/26 106/34/26
f 106/34/27 37/42/27 7/43/27 28/44/27
f 105/32/28 106/34/28 28/44/28 27/45/28
f 104/33/29 105/32/29 27/45/29 26/46/29
f 41/47/30 104/33/30 26/46/30 8/48/30
f 42/49/31 101/29/31 104/33/31 41/47/31
f 43/37/32 98/26/32 101/29/32 42/49/32
f 107/50/33 108/51/33 111/52/33 110/53/33
f 108/51/34 109/54/34 112/55/34 111/52/34
f 110/53/35 111/52/35 114/56/35 113/57/35
f 111/52/36 112/55/36 115/58/36 114/56/36
f 8/59/37 26/60/37 107/50/37 19/61/37
f 26/60/38 27/62/38 108/51/38 107/50/38
f 27/62/39 28/63/39 109/54/39 108/51/39
f 28/63/40 7/64/40 44/65/40 109/54/40
f 109/54/41 44/65/41 45/66/41 112/55/41
f 112/55/42 45/66/42 46/67/42 115/58/42
f 115/58/43 46/67/43 5/68/43 32/69/43
f 114/56/44 115/58/44 32/69/44 33/70/44
f 113/57/45 114/56/45 33/70/45 34/71/45
f 17/72/46 113/57/46 34/71/46 6/73/46
f 18/74/47 110/53/47 113/57/47 17/72/47
f 19/61/48 107/50/48 110/53/48 18/74/48
f 116/75/49 117/76/49 120/77/49 119/78/49
f 117/76/50 118/79/50 121/80/50 120/77/50
f 119/78/51 120/77/51 123/81/51 122/82/51
f 120/77/52 121/80/52 124/83/52 123/81/52
f 6/84/53 22/85/53 116/75/53 17/86/53
f 22/85/54 21/87/54 117/76/54 116/75/54
f 21/87/55 20/88/55 118/79/55 117/76/55
f 20/88/56 2/89/56 52/90/56 118/79/56
f 118/79/57 52/90/57 51/91/57 121/80/57
f 121/80/58 51/91/58 50/92/58 124/83/58
f 124/83/59 50/92/59 4/35/59 43/93/59
f 123/81/60 124/83/60 43/93/60 42/94/60
f 122/82/61 123/81/61 42/94/61 41/95/61
f 19/96/62 122/82/62 41/95/62 8/97/62
f 18/98/63 119/78/63 122/82/63 19/96/63
f 17/86/64 116/75/64 119/78/64 18/98/64
f 125/99/65 126/100/65 129/101/65 128/102/65
f 126/100/66 127/103/66 130/104/66 129/101/66
f 128/102/67 129/101/67 132/105/67 131/106/67
f 129/101/68 130/104/68 133/107/68 132/105/68
f 2/89/69 25/108/69 125/99/69 52/90/69
f 25/108/70 24/109/70 126/100/70 125/99/70
f 24/109/71 23/110/71 127/103/71 126/100/71
f 23/110/72 1/10/72 38/12/72 127/103/72
f 127/103/73 38/12/73 39/25/73 130/104/73
f 130/104/74 39/25/74 40/23/74 133/107/74
f 133/107/75 40/23/75 3/24/75 29/39/75
f 132/105/76 133/107/76 29/39/76 30/38/76
f 131/106/77 132/105/77 30/38/77 31/36/77
f 50/92/78 131/106/78 31/36/78 4/35/78
f 51/91/79 128/102/79 131/106/79 50/92/79
f 52/90/80 125/99/80 128/102/80 51/91/80
f 134/111/81 135/112/81 138/113/81 137/114/81
f 135/112/81 136/115/81 139/116/81 138/113/81
f 137/114/81 138/113/81 141/117/81 140/118/81
f 138/113/81 139/116/81 142/119/81 141/117/81
f 6/73/82 34/71/82 134/111/82 22/120/82
f 34/71/83 33/70/83 135/112/83 134/111/83
f 33/70/84 32/69/84 136/115/84 135/112/84
f 32/69/85 5/68/85 47/121/85 136/115/85
f 136/115/86 47/121/86 48/122/86 139/116/86
f 139/116/87 48/122/87 49/123/87 142/119/87
f 142/119/88 49/123/88 1/10/88 23/110/88
f 141/117/89 142/119/89 23/110/89 24/109/89
f 140/118/90 141/117/90 24/109/90 25/108/90
f 20/124/91 140/118/91 25/108/91 2/89/91
f 21/125/92 137/114/92 140/118/92 20/124/92
f 22/120/93 134/111/93 137/114/93 21/125/93
usemtl Material.001
f 143/1/94 144/2/94 147/3/94 146/4/94
f 144/2/95 145/5/95 148/6/95 147/3/95
f 146/4/96 147/3/96 150/7/96 149/8/96
f 147/3/97 148/6/97 151/9/97 150/7/97
f 9/10/98 85/11/98 143/1/98 74/12/98
f 85/11/99 84/126/99 144/2/99 143/1/99
f 84/126/100 83/14/100 145/5/100 144/2/100
f 83/14/101 13/15/101 82/16/101 145/5/101
f 145/5/102 82/16/102 81/17/102 148/6/102
f 148/6/103 81/17/103 80/18/103 151/9/103
f 151/9/104 80/18/104 15/19/104 73/20/104
f 150/7/105 151/9/105 73/20/105 72/21/105
f 149/8/106 150/7/106 72/21/106 71/22/106
f 76/23/107 149/8/107 71/22/107 11/24/107
f 75/25/108 146/4/108 149/8/108 76/23/108
f 74/12/109 143/1/109 146/4/109 75/25/109
f 152/26/110 153/27/110 156/28/110 155/29/110
f 153/27/111 154/30/111 157/31/111 156/28/111
f 155/29/112 156/28/112 159/32/112 158/33/112
f 156/28/113 157/31/113 160/34/113 159/32/113
f 12/35/114 67/36/114 152/26/114 79/37/114
f 67/36/115 66/38/115 153/27/115 152/26/115
f 66/38/116 65/39/116 154/30/116 153/27/116
f 65/39/117 11/24/117 71/40/117 154/30/117
f 154/30/118 71/40/118 72/41/118 157/31/118
f 157/31/119 72/41/119 73/42/119 160/34/119
f 160/34/120 73/42/120 15/43/120 64/44/120
f 159/32/121 160/34/121 64/44/121 63/45/121
f 158/33/122 159/32/122 63/45/122 62/46/122
f 77/47/123 158/33/123 62/46/123 16/48/123
f 78/49/124 155/29/124 158/33/124 77/47/124
f 79/37/125 152/26/125 155/29/125 78/49/125
f 161/50/126 162/51/126 165/52/126 164/53/126
f 162/51/127 163/54/127 166/55/127 165/52/127
f 164/53/128 165/52/128 168/127/128 167/128/128
f 165/52/129 166/55/129 169/58/129 168/127/129
f 16/59/130 62/60/130 161/50/130 55/61/130
f 62/60/131 63/62/131 162/51/131 161/50/131
f 63/62/132 64/63/132 163/54/132 162/51/132
f 64/63/133 15/64/133 80/65/133 163/54/133
f 163/54/134 80/65/134 81/66/134 166/55/134
f 166/55/135 81/66/135 82/67/135 169/58/135
f 169/58/136 82/67/136 13/68/136 68/69/136
f 168/127/137 169/58/137 68/69/137 69/129/137
f 167/128/138 168/127/138 69/129/138 70/130/138
f 53/72/139 167/128/139 70/130/139 14/73/139
f 54/74/140 164/53/140 167/128/140 53/72/140
f 55/61/141 161/50/141 164/53/141 54/74/141
f 170/75/142 171/76/142 174/77/142 173/78/142
f 171/76/143 172/79/143 175/80/143 174/77/143
f 173/78/144 174/77/144 177/81/144 176/82/144
f 174/77/145 175/80/145 178/83/145 177/81/145
f 14/84/146 58/131/146 170/75/146 53/86/146
f 58/131/147 57/87/147 171/76/147 170/75/147
f 57/87/148 56/88/148 172/79/148 171/76/148
f 56/88/149 10/89/149 88/90/149 172/79/149
f 172/79/150 88/90/150 87/91/150 175/80/150
f 175/80/151 87/91/151 86/92/151 178/83/151
f 178/83/152 86/92/152 12/35/152 79/93/152
f 177/81/153 178/83/153 79/93/153 78/94/153
f 176/82/154 177/81/154 78/94/154 77/95/154
f 55/96/155 176/82/155 77/95/155 16/97/155
f 54/98/156 173/78/156 176/82/156 55/96/156
f 53/86/157 170/75/157 173/78/157 54/98/157
f 179/99/158 180/100/158 183/101/158 182/102/158
f 180/100/159 181/103/159 184/104/159 183/101/159
f 182/102/160 183/101/160 186/105/160 185/106/160
f 183/101/161 184/104/161 187/107/161 186/105/161
f 10/89/162 61/132/162 179/99/162 88/90/162
f 61/132/163 60/133/163 180/100/163 179/99/163
f 60/133/164 59/134/164 181/103/164 180/100/164
f 59/134/165 9/10/165 74/12/165 181/103/165
f 181/103/166 74/12/166 75/25/166 184/104/166
f 184/104/167 75/25/167 76/23/167 187/107/167
f 187/107/168 76/23/168 11/24/168 65/39/168
f 186/105/169 187/107/169 65/39/169 66/38/169
f 185/106/170 186/105/170 66/38/170 67/36/170
f 86/92/171 185/106/171 67/36/171 12/35/171
f 87/91/172 182/102/172 185/106/172 86/92/172
f 88/90/173 179/99/173 182/102/173 87/91/173
f 188/111/174 189/112/174 192/113/174 191/114/174
f 189/112/175 190/135/175 193/136/175 192/113/175
f 191/114/176 192/113/176 195/117/176 194/137/176
f 192/113/177 193/136/177 196/119/177 195/117/177
f 14/73/178 70/130/178 188/111/178 58/138/178
f 70/130/179 69/129/179 189/112/179 188/111/179
f 69/129/180 68/69/180 190/135/180 189/112/180
f 68/69/181 13/68/181 83/139/181 190/135/181
f 190/135/182 83/139/182 84/140/182 193/136/182
f 193/136/183 84/140/183 85/123/183 196/119/183
f 196/119/184 85/123/184 9/10/184 59/134/184
f 195/117/185 196/119/185 59/134/185 60/133/185
f 194/137/186 195/117/186 60/133/186 61/132/186
f 56/124/187 194/137/187 61/132/187 10/89/187
f 57/141/188 191/114/188 194/137/188 56/124/188
f 58/138/189 188/111/189 191/114/189 57/141/189
